<svg xmlns="http://www.w3.org/2000/svg" viewBox="0 0 24 24" fill="none">
  <path d="M12 2C6.48 2 2 6.48 2 12s4.48 10 10 10 10-4.48 10-10S17.52 2 12 2zm0 16c-3.31 0-6-2.69-6-6 0-1.01.25-1.97.7-2.8C7.48 8.39 8.67 8 10 8c.45 0 .89.04 1.31.12.26-.54.71-.97 1.28-1.12.48-.98.98-1.95 1.42-2.95.77 1.54 1.27 3.19 1.5 4.92 1.16.97 1.95 2.38 2.16 3.97.7.82.33 1.75.33 2.75 0 3.31-2.69 6-6 6z" fill="#4CAF50"/>
  <circle cx="9" cy="10" r="1.5" fill="#4CAF50"/>
  <circle cx="15" cy="10" r="1.5" fill="#4CAF50"/>
</svg> 