<svg xmlns="http://www.w3.org/2000/svg" viewBox="0 0 24 24" fill="none">
  <path d="M21 5c-1.11-.35-2.33-.5-3.5-.5-1.95 0-4.05.4-5.5 1.5-1.45-1.1-3.55-1.5-5.5-1.5-1.17 0-2.39.15-3.5.5-1.11.35-2 .87-2 1.5v12c0 .63.89 1.15 2 1.5 1.11.35 2.33.5 3.5.5 1.95 0 4.05-.4 5.5-1.5 1.45 1.1 3.55 1.5 5.5 1.5 1.17 0 2.39-.15 3.5-.5 1.11-.35 2-.87 2-1.5V6.5c0-.63-.89-1.15-2-1.5zM12 17.5c-1.1 0-1.99-.22-2.78-.59-.4.37-.91.59-1.5.59-.98 0-1.79-.73-1.93-1.67C4.64 15.55 4 15.15 4 14.5c0-.63.44-1.16 1.03-1.3.35-.93 1.24-1.59 2.3-1.59.5 0 .97.15 1.35.41.39-.27.85-.41 1.35-.41 1.34 0 2.42 1.08 2.42 2.42 0 .95-.55 1.77-1.42 2.16v.76c1.5-.76 3.18-1.15 5-1.15.36 0 .72.03 1.08.08.79-1.29 1.35-2.78 1.45-4.37H5.97v1c0 1.66 1.34 3 3 3H11c.55 0 1 .45 1 1v1.5z" fill="#9575CD"/>
</svg> 